Coordinates
version=1
nRows=32
nColumns=34
inDegrees=no

Units are S.I. units (second, meters, Newtons, ...)
If the header above contains a line with 'inDegrees', this indicates whether rotational values are in degrees (yes) or radians (no).

endheader
time	pelvis_tilt	pelvis_list	pelvis_rotation	pelvis_tx	pelvis_ty	pelvis_tz	hip_flexion_r	hip_adduction_r	hip_rotation_r	knee_angle_r	ankle_angle_r	subtalar_angle_r	mtp_angle_r	hip_flexion_l	hip_adduction_l	hip_rotation_l	knee_angle_l	ankle_angle_l	subtalar_angle_l	mtp_angle_l	lumbar_extension	lumbar_bending	lumbar_rotation	arm_flex_r	arm_add_r	arm_rot_r	elbow_flex_r	pro_sup_r	arm_flex_l	arm_add_l	arm_rot_l	elbow_flex_l	pro_sup_l
2.58	-0.0867351	-0.00190448	-0.0218966	-0.143914	0.958532	-0.603438	0.027154	-0.0712166	0.167436	0.0190159	0.113211	-0.234714	0	0.0163748	-0.0681446	0.137461	0.00236814	0.0857253	-0.269031	0	-0.0159386	0.00210729	-0.0645291	-0.0588219	-0.154954	0.073396	0.649873	2.09	-0.086964	-0.154847	0.0291619	0.616359	2.09
2.59	-0.0869406	-0.00194659	-0.0218856	-0.143857	0.958499	-0.603417	0.0272528	-0.0711216	0.167347	0.0189269	0.113277	-0.234573	0	0.0165119	-0.0682261	0.137365	0.00232567	0.0858381	-0.268958	0	-0.0158327	0.00203284	-0.06465	-0.058637	-0.154895	0.0740601	0.649691	2.09	-0.0871721	-0.154761	0.0293171	0.616634	2.09
2.6	-0.0870927	-0.00200179	-0.0218056	-0.143797	0.958474	-0.603391	0.0272673	-0.0710335	0.167427	0.0188055	0.113368	-0.234537	0	0.0165971	-0.0683327	0.137251	0.00230597	0.0860634	-0.26871	0	-0.0157436	0.00196717	-0.0646815	-0.0585745	-0.15468	0.0741491	0.649596	2.09	-0.0872855	-0.154693	0.0293015	0.616765	2.09
2.61	-0.087187	-0.00202033	-0.021811	-0.143745	0.958461	-0.603385	0.0273157	-0.0710287	0.167563	0.018815	0.113344	-0.234793	0	0.0165591	-0.0683671	0.137203	0.0021722	0.086095	-0.268682	0	-0.0157284	0.00191823	-0.0644642	-0.0585902	-0.154553	0.0740598	0.649626	2.09	-0.0872661	-0.154643	0.0293576	0.616762	2.09
2.62	-0.0873299	-0.00197542	-0.0219469	-0.143689	0.958441	-0.603398	0.0274868	-0.0710961	0.167885	0.0189215	0.113201	-0.235545	0	0.0165228	-0.0683012	0.137092	0.00195778	0.0859521	-0.268978	0	-0.0156583	0.00182345	-0.0640484	-0.0586598	-0.154536	0.0739331	0.649688	2.09	-0.0872172	-0.154557	0.0296101	0.61673	2.09
2.63	-0.0875239	-0.00194937	-0.0220934	-0.143627	0.958418	-0.603408	0.0276384	-0.0711318	0.168273	0.018903	0.113148	-0.235955	0	0.0165969	-0.0682561	0.136892	0.00188	0.0859721	-0.269239	0	-0.0155067	0.0017375	-0.0637314	-0.0586929	-0.154579	0.0740703	0.649722	2.09	-0.0872307	-0.154404	0.0297485	0.616677	2.09
2.64	-0.0876829	-0.00199986	-0.022295	-0.143564	0.958408	-0.603378	0.0276912	-0.0710593	0.168589	0.0187672	0.113162	-0.235657	0	0.016634	-0.068338	0.136695	0.00185335	0.0860982	-0.269316	0	-0.0154004	0.00171577	-0.0634384	-0.0586978	-0.154599	0.0743911	0.649819	2.09	-0.0872557	-0.154277	0.0297463	0.616606	2.09
2.65	-0.0877645	-0.00203875	-0.0224979	-0.143503	0.958411	-0.603329	0.0276819	-0.0709863	0.168624	0.0186847	0.113206	-0.235168	0	0.0165563	-0.0684287	0.136657	0.00174261	0.086016	-0.269464	0	-0.0154075	0.00168633	-0.0631409	-0.0586979	-0.154562	0.0746488	0.649968	2.09	-0.0872676	-0.154195	0.0298917	0.616574	2.09
2.66	-0.0878352	-0.0019691	-0.0225664	-0.143442	0.958412	-0.603315	0.0276961	-0.0710523	0.168501	0.0187043	0.113311	-0.23494	0	0.016489	-0.0683647	0.136759	0.0015954	0.0858261	-0.269735	0	-0.0154241	0.00157736	-0.0629448	-0.0586929	-0.154507	0.0747538	0.650049	2.09	-0.0872492	-0.154011	0.0301856	0.616513	2.09
2.67	-0.0879696	-0.00181366	-0.0225476	-0.143379	0.958397	-0.603335	0.0277822	-0.0712307	0.1685	0.0187305	0.113488	-0.234757	0	0.0165103	-0.0681761	0.136835	0.00148546	0.0857981	-0.269868	0	-0.0153171	0.001408	-0.0627841	-0.0587089	-0.154461	0.0747249	0.650039	2.09	-0.0871581	-0.153716	0.0304103	0.616285	2.09
2.68	-0.0881147	-0.00169511	-0.0225301	-0.143311	0.95838	-0.603345	0.0278494	-0.0713531	0.168566	0.0186887	0.113655	-0.234588	0	0.0165285	-0.068048	0.13684	0.00139203	0.0858912	-0.269818	0	-0.0151414	0.00126717	-0.0625333	-0.0587971	-0.154417	0.074588	0.650084	2.09	-0.087012	-0.15349	0.0305797	0.616003	2.09
2.69	-0.0882435	-0.00162389	-0.0225378	-0.143243	0.95837	-0.603336	0.0278733	-0.0714229	0.168551	0.0186118	0.113859	-0.234645	0	0.016519	-0.0679917	0.136842	0.00126709	0.0859613	-0.26979	0	-0.0149678	0.00116434	-0.0621122	-0.0590245	-0.154432	0.0743732	0.650331	2.09	-0.0867692	-0.153325	0.0308793	0.615637	2.09
2.7	-0.0882666	-0.00170123	-0.0225445	-0.143192	0.95838	-0.603318	0.0278241	-0.0713321	0.168552	0.0186096	0.113901	-0.235105	0	0.0164452	-0.0681081	0.136875	0.00116759	0.0858515	-0.269895	0	-0.0150164	0.00120622	-0.061874	-0.0590815	-0.154511	0.0745093	0.650557	2.09	-0.0866277	-0.153119	0.03102	0.615466	2.09
2.71	-0.08825	-0.00183461	-0.0225985	-0.143147	0.958391	-0.603287	0.0277821	-0.0711611	0.16882	0.0186682	0.113804	-0.23555	0	0.0163382	-0.0683117	0.136921	0.00110833	0.0856843	-0.270005	0	-0.0151645	0.0012771	-0.0618026	-0.0589395	-0.154509	0.074849	0.650582	2.09	-0.0866263	-0.152937	0.0312733	0.615417	2.09
2.72	-0.088232	-0.00192611	-0.0225955	-0.143093	0.958389	-0.603257	0.0277172	-0.0710223	0.169163	0.0186962	0.113673	-0.235667	0	0.0162338	-0.0684761	0.137042	0.00109843	0.0856656	-0.270032	0	-0.0152405	0.0012772	-0.0617926	-0.0587852	-0.154436	0.0749941	0.650487	2.09	-0.0866745	-0.15283	0.0318792	0.615447	2.09
2.73	-0.0882759	-0.00195511	-0.0225528	-0.143033	0.958373	-0.603246	0.0276782	-0.070963	0.169314	0.0186748	0.113611	-0.235642	0	0.0161954	-0.0685494	0.137115	0.00109965	0.0857887	-0.269975	0	-0.0151375	0.00122	-0.0617654	-0.0586929	-0.154439	0.0749083	0.650329	2.09	-0.086725	-0.152702	0.0323154	0.615515	2.09
2.74	-0.0884333	-0.00197349	-0.0226004	-0.14296	0.95835	-0.603231	0.0277357	-0.0709152	0.169324	0.0186149	0.11361	-0.235751	0	0.0162309	-0.0686103	0.136981	0.00105271	0.0858797	-0.269876	0	-0.0148588	0.00115471	-0.0616757	-0.0586523	-0.154448	0.0746734	0.650122	2.09	-0.0868504	-0.152561	0.032267	0.615544	2.09
2.75	-0.0886653	-0.00200968	-0.022687	-0.142862	0.958321	-0.603195	0.027825	-0.0708366	0.169376	0.0184956	0.113563	-0.235991	0	0.0162828	-0.0687115	0.136812	0.000945838	0.0859206	-0.269741	0	-0.0144549	0.00107657	-0.0615546	-0.0586942	-0.15427	0.0741444	0.649911	2.09	-0.0870968	-0.152494	0.0321975	0.615523	2.09
2.76	-0.0888014	-0.00201846	-0.022745	-0.142767	0.958298	-0.603161	0.0278141	-0.0708019	0.169535	0.0183686	0.113444	-0.236242	0	0.0162407	-0.0687665	0.136804	0.000822461	0.0858964	-0.269671	0	-0.0141674	0.000962563	-0.0614444	-0.0587133	-0.153967	0.073478	0.649775	2.09	-0.0873155	-0.152496	0.0324337	0.61552	2.09
2.77	-0.0888084	-0.00197206	-0.0228035	-0.142702	0.958288	-0.603158	0.0277013	-0.0708663	0.169726	0.0182595	0.113377	-0.236433	0	0.0161103	-0.0686989	0.136814	0.000699777	0.0858629	-0.269772	0	-0.0141098	0.000847194	-0.061268	-0.0586403	-0.153771	0.0729383	0.649639	2.09	-0.0873432	-0.152479	0.0328758	0.615537	2.09
2.78	-0.0888452	-0.00191827	-0.0228055	-0.142644	0.95828	-0.603182	0.027618	-0.0709597	0.16985	0.0181729	0.113466	-0.236465	0	0.0160302	-0.0685713	0.136703	0.000557194	0.0859131	-0.270019	0	-0.0140823	0.000787847	-0.0609137	-0.0587127	-0.153829	0.0725419	0.649559	2.09	-0.0871418	-0.152296	0.0332413	0.615371	2.09
2.79	-0.0890139	-0.00190466	-0.022796	-0.142569	0.958263	-0.603195	0.0277063	-0.0709784	0.170005	0.0181858	0.113624	-0.236284	0	0.0160552	-0.0685158	0.136565	0.000405689	0.0860281	-0.270255	0	-0.0138664	0.000757804	-0.0603758	-0.0590516	-0.154032	0.0722898	0.649654	2.09	-0.0868486	-0.151965	0.0334328	0.614936	2.09
2.8	-0.0892572	-0.00190951	-0.0229849	-0.142484	0.958245	-0.603158	0.0279787	-0.0709143	0.170358	0.0183405	0.113768	-0.2361	0	0.0160949	-0.0685734	0.136428	0.000258516	0.0860699	-0.270393	0	-0.0134796	0.000662494	-0.0597084	-0.059451	-0.154113	0.072187	0.649869	2.09	-0.086602	-0.151702	0.0336088	0.614356	2.09
2.81	-0.0892989	-0.00188413	-0.0230668	-0.142412	0.958245	-0.60311	0.0279739	-0.0708816	0.170449	0.0183988	0.113814	-0.236319	0	0.0159812	-0.0686271	0.136456	0.000171646	0.0859717	-0.270405	0	-0.0133384	0.000476055	-0.0594753	-0.0595567	-0.153964	0.0721382	0.649938	2.09	-0.0865582	-0.151647	0.0336616	0.614131	2.09
2.82	-0.0892715	-0.00183293	-0.0229826	-0.14234	0.958242	-0.603092	0.0277746	-0.0709349	0.170257	0.0182892	0.113806	-0.23676	0	0.0158383	-0.0686006	0.136606	6.27252e-05	0.0858148	-0.270548	0	-0.013294	0.000324307	-0.0594286	-0.0596354	-0.153852	0.0719404	0.649978	2.09	-0.0865319	-0.151615	0.03367	0.613978	2.09
2.83	-0.0893064	-0.00179988	-0.0228168	-0.142271	0.958221	-0.603109	0.0276059	-0.0710185	0.170024	0.0180976	0.113741	-0.237098	0	0.0157908	-0.0685413	0.136849	0	0.0857331	-0.270811	0	-0.0131944	0.000268004	-0.0594993	-0.0596816	-0.153889	0.0719051	0.649959	2.09	-0.0865324	-0.151524	0.0336427	0.613857	2.09
2.84	-0.089409	-0.00181154	-0.022654	-0.142201	0.958189	-0.603124	0.0275272	-0.0710298	0.170036	0.0179129	0.113636	-0.237542	0	0.0158127	-0.0685484	0.137243	0	0.0857545	-0.271135	0	-0.0129928	0.000277879	-0.0595976	-0.0596814	-0.15397	0.0723345	0.649843	2.09	-0.086493	-0.151396	0.0336266	0.613595	2.09
2.85	-0.0893939	-0.0018791	-0.0225406	-0.142124	0.958168	-0.603098	0.0273702	-0.0709071	0.170227	0.017851	0.113591	-0.238157	0	0.0156686	-0.0686866	0.137558	0	0.0857616	-0.271284	0	-0.0128895	0.000352366	-0.0593662	-0.0598527	-0.153938	0.0725095	0.649859	2.09	-0.0861928	-0.151317	0.0338895	0.613008	2.09
2.86	-0.089284	-0.00196988	-0.0224681	-0.142039	0.958162	-0.603047	0.027128	-0.0707495	0.170363	0.0178495	0.113571	-0.238563	0	0.0153984	-0.068877	0.13768	0	0.0857224	-0.271305	0	-0.012874	0.000457749	-0.0588831	-0.0601658	-0.153841	0.0720845	0.649991	2.09	-0.0858011	-0.151327	0.0344269	0.612391	2.09
2.87	-0.0891492	-0.00210845	-0.022453	-0.141955	0.958163	-0.603015	0.026828	-0.0705838	0.170552	0.017765	0.113482	-0.238831	0	0.0150827	-0.0690909	0.137717	0	0.085736	-0.271367	0	-0.0129202	0.000590985	-0.0584082	-0.0604081	-0.153813	0.0715454	0.650069	2.09	-0.0854647	-0.151374	0.0351548	0.611896	2.09
2.88	-0.0889999	-0.00224999	-0.0224404	-0.141887	0.95816	-0.603016	0.0265129	-0.0704466	0.170736	0.0176402	0.113369	-0.239055	0	0.0147923	-0.0692531	0.137774	0	0.085763	-0.271532	0	-0.0130706	0.000714939	-0.058229	-0.060368	-0.153838	0.0714374	0.649987	2.09	-0.0852917	-0.151367	0.0356685	0.611702	2.09
2.89	-0.0887616	-0.00240879	-0.0224379	-0.141826	0.958159	-0.603011	0.0262305	-0.0702539	0.170761	0.0177514	0.113462	-0.239125	0	0.0144541	-0.0694134	0.137799	0	0.0857104	-0.271713	0	-0.0133479	0.000858063	-0.0582037	-0.0601582	-0.15374	0.0715	0.649805	2.09	-0.0851791	-0.151319	0.0359471	0.611601	2.09
